<svg width="11" height="17" viewBox="0 0 11 17" fill="none" xmlns="http://www.w3.org/2000/svg">
<path d="M0.847248 12.4844C2.07453 13.1021 3.41765 13.4335 4.78322 13.4553C6.17212 13.4553 6.85924 12.9562 6.85924 12.1638C6.85924 11.3714 6.17817 10.9721 4.4617 10.3642C1.90514 9.42652 0.200775 7.96564 0.200775 5.63058C0.200775 2.85401 2.46433 0.724642 6.29743 0.724642C7.70189 0.689779 9.09685 0.962966 10.3915 1.52624L9.54111 4.88656C8.50483 4.399 7.38038 4.14539 6.24212 4.14253C5.00533 4.14253 4.32428 4.61131 4.32428 5.3009C4.32428 6.09641 5.12806 6.41698 7.04331 7.15806C9.77791 8.19243 11 9.70784 11 11.8916C11 14.6138 8.95338 16.9094 4.5317 16.9094C2.70114 16.9094 0.928496 16.4134 0.069397 15.9537L0.847248 12.4844Z" fill="white"/>
</svg>
