<svg width="15" height="17" viewBox="0 0 15 17" fill="none" xmlns="http://www.w3.org/2000/svg">
<path d="M0.769165 1.18469C2.36688 0.945114 3.9799 0.831852 5.5943 0.845887C8.51844 0.845887 10.3291 1.33594 11.8347 2.40662C13.5071 3.59833 14.5831 5.55525 14.5831 8.43776C14.5831 11.6348 13.4138 13.7127 11.9315 14.9075C10.2643 16.2444 7.77861 16.8402 4.81057 16.8402C3.45917 16.8582 2.10829 16.7723 0.769165 16.5831V1.18469ZM4.82811 13.5282C5.11402 13.5677 5.40252 13.5829 5.69076 13.5735C8.32225 13.6069 10.2703 12.1127 10.2703 8.57086C10.2703 5.50385 8.51585 4.06112 6.06508 4.06112C5.65039 4.04914 5.23562 4.08365 4.82811 4.16392V13.5282Z" fill="white"/>
</svg>
