<svg width="12" height="17" viewBox="0 0 12 17" fill="none" xmlns="http://www.w3.org/2000/svg">
<path d="M0.244995 1.18455C1.90183 0.933446 3.57509 0.820184 5.24835 0.84584C7.43326 0.84584 8.99762 1.2541 10.0624 2.09798C10.6138 2.54558 11.0572 3.12002 11.358 3.77573C11.6579 4.43152 11.8057 5.15052 11.7901 5.87577C11.7901 7.46671 11.2759 8.85804 10.3139 9.74733C9.08837 10.8845 7.30707 11.3897 5.26044 11.3897C4.86546 11.3897 4.51803 11.3564 4.26912 11.3383V16.6646H0.244995V1.18455ZM4.27775 8.11097C4.58544 8.16032 4.89659 8.18052 5.20773 8.17149C6.78678 8.17149 7.77812 7.32458 7.77812 5.97553C7.77812 4.80501 7.02964 4.01262 5.48257 4.01262C5.07808 4.00475 4.67446 4.04123 4.27775 4.1215V8.11097Z" fill="white"/>
</svg>
