<svg width="13" height="17" viewBox="0 0 13 17" fill="none" xmlns="http://www.w3.org/2000/svg">
<path d="M0.532104 1.18455C2.1561 0.945872 3.79566 0.83261 5.43607 0.845751C7.77569 0.845751 9.42474 1.17847 10.5682 2.05561C11.5422 2.82386 12.0651 3.94298 12.0651 5.47949C12.0651 7.43641 10.6468 8.82774 9.46535 9.27542V9.35704C10.4748 9.80472 11.0185 10.8058 11.4074 12.17C11.8638 13.764 12.3633 16.0475 12.6563 16.6525H8.5034C8.27264 16.1988 7.87767 14.9708 7.43948 13.0229C7.02635 11.1416 6.47148 10.7514 5.21654 10.7514H4.55535V16.6374H0.532104V1.18455ZM4.55535 7.75099H5.61411C7.14648 7.75099 8.02979 6.97666 8.02979 5.80014C8.02979 4.62354 7.28131 3.95505 5.93043 3.94298C5.46977 3.92332 5.0091 3.95469 4.55535 4.03676V7.75099Z" fill="white"/>
</svg>
